<svg width="100" height="100" viewBox="0 0 100 100" fill="none" xmlns="http://www.w3.org/2000/svg">
<rect width="100" height="100" fill="#F1C40E"/>
<path d="M32.632 26.024H68.216C69.5813 26.024 70.584 26.1947 71.224 26.536C71.864 26.8347 72.2907 27.3253 72.504 28.008C72.7173 28.6907 72.824 29.5867 72.824 30.696C72.824 31.8053 72.7173 32.7013 72.504 33.384C72.2907 34.024 71.928 34.472 71.416 34.728C70.648 35.112 69.56 35.304 68.152 35.304H55.928V67.496C55.928 68.4773 55.8853 69.2027 55.8 69.672C55.7573 70.1413 55.5653 70.696 55.224 71.336C54.9253 71.9333 54.3707 72.36 53.56 72.616C52.7493 72.872 51.6827 73 50.36 73C49.0373 73 47.9707 72.872 47.16 72.616C46.392 72.36 45.8373 71.9333 45.496 71.336C45.1973 70.696 45.0053 70.1413 44.92 69.672C44.8773 69.16 44.856 68.4133 44.856 67.432V35.304H32.568C31.2027 35.304 30.2 35.1547 29.56 34.856C28.92 34.5147 28.4933 34.0027 28.28 33.32C28.0667 32.6373 27.96 31.7413 27.96 30.632C27.96 29.5227 28.0667 28.648 28.28 28.008C28.4933 27.3253 28.856 26.856 29.368 26.6C30.136 26.216 31.224 26.024 32.632 26.024Z" fill="black"/>
</svg>
